<svg xmlns="http://www.w3.org/2000/svg" xmlns:xlink="http://www.w3.org/1999/xlink" xmlns:inkscape="http://www.inkscape.org/namespaces/inkscape" version="1.1" width="792" height="612" viewBox="0 0 792 612" preserveAspectRatio="none">
<defs>
<clipPath id="clip_0">
<path transform="matrix(.42584888,0,0,.42584888,7.2000005,223.59827)" d="M-2 19H1828V368H-2V19Z"/>
</clipPath>
</defs>
<g>
<g clip-path="url(#clip_0)">
<path transform="matrix(.42584888,0,0,.42584888,7.2000005,223.59827)" d="M0 21H1827V88H0V21Z" fill="#ffffff"/>
<path transform="matrix(.42584888,0,0,.42584888,7.2000005,223.59827)" d="M0 88H101V367H0V88Z" fill="#ffffff"/>
<path transform="matrix(.42584888,0,0,.42584888,7.2000005,223.59827)" d="M1726 88H1827V111H1726V88Z" fill="#ffffff"/>
<path transform="matrix(.42584888,0,0,.42584888,7.2000005,223.59827)" d="M101 111H312V153H101V111Z" fill="#ffffff"/>
<path transform="matrix(.42584888,0,0,.42584888,7.2000005,223.59827)" d="M615 111H1827V132H615V111Z" fill="#ffffff"/>
<path transform="matrix(.42584888,0,0,.42584888,7.2000005,223.59827)" d="M312 132H514V153H312V132Z" fill="#ffffff"/>
<path transform="matrix(.42584888,0,0,.42584888,7.2000005,223.59827)" d="M615 132H1827V153H615V132Z" fill="#ffffff"/>
<path transform="matrix(.42584888,0,0,.42584888,7.2000005,223.59827)" d="M1726 153H1827V176H1726V153Z" fill="#ffffff"/>
<path transform="matrix(.42584888,0,0,.42584888,7.2000005,223.59827)" d="M101 176H615V239H101V176Z" fill="#ffffff"/>
<path transform="matrix(.42584888,0,0,.42584888,7.2000005,223.59827)" d="M817 176H1827V197H817V176Z" fill="#ffffff"/>
<path transform="matrix(.42584888,0,0,.42584888,7.2000005,223.59827)" d="M615 197H716V239H615V197Z" fill="#ffffff"/>
<path transform="matrix(.42584888,0,0,.42584888,7.2000005,223.59827)" d="M918 197H1827V218H918V197Z" fill="#ffffff"/>
<path transform="matrix(.42584888,0,0,.42584888,7.2000005,223.59827)" d="M716 218H817V239H716V218Z" fill="#ffffff"/>
<path transform="matrix(.42584888,0,0,.42584888,7.2000005,223.59827)" d="M918 218H1827V239H918V218Z" fill="#ffffff"/>
<path transform="matrix(.42584888,0,0,.42584888,7.2000005,223.59827)" d="M1726 239H1827V262H1726V239Z" fill="#ffffff"/>
<path transform="matrix(.42584888,0,0,.42584888,7.2000005,223.59827)" d="M101 262H918V367H101V262Z" fill="#ffffff"/>
<path transform="matrix(.42584888,0,0,.42584888,7.2000005,223.59827)" d="M1221 262H1827V283H1221V262Z" fill="#ffffff"/>
<path transform="matrix(.42584888,0,0,.42584888,7.2000005,223.59827)" d="M918 283H1120V367H918V283Z" fill="#ffffff"/>
<path transform="matrix(.42584888,0,0,.42584888,7.2000005,223.59827)" d="M1221 283H1827V304H1221V283Z" fill="#ffffff"/>
<path transform="matrix(.42584888,0,0,.42584888,7.2000005,223.59827)" d="M1120 304H1221V367H1120V304Z" fill="#ffffff"/>
<path transform="matrix(.42584888,0,0,.42584888,7.2000005,223.59827)" d="M1423 304H1827V325H1423V304Z" fill="#ffffff"/>
<path transform="matrix(.42584888,0,0,.42584888,7.2000005,223.59827)" d="M1221 325H1423V367H1221V325Z" fill="#ffffff"/>
<path transform="matrix(.42584888,0,0,.42584888,7.2000005,223.59827)" d="M1625 325H1827V346H1625V325Z" fill="#ffffff"/>
<path transform="matrix(.42584888,0,0,.42584888,7.2000005,223.59827)" d="M1423 346H1827V367H1423V346Z" fill="#ffffff"/>
<path transform="matrix(.42584888,0,0,.42584888,7.2000005,223.59827)" d="M100 87H1726V111H100V87Z" fill="#f9cb9c"/>
<path transform="matrix(.42584888,0,0,.42584888,7.2000005,223.59827)" d="M311 110H615V132H311V110Z" fill="#fce5cd"/>
<path transform="matrix(.42584888,0,0,.42584888,7.2000005,223.59827)" d="M513 131H615V153H513V131Z" fill="#fce5cd"/>
<path transform="matrix(.42584888,0,0,.42584888,7.2000005,223.59827)" d="M100 152H1726V176H100V152Z" fill="#a4c2f4"/>
<path transform="matrix(.42584888,0,0,.42584888,7.2000005,223.59827)" d="M614 175H817V197H614V175Z" fill="#c9daf8"/>
<path transform="matrix(.42584888,0,0,.42584888,7.2000005,223.59827)" d="M715 196H918V218H715V196Z" fill="#c9daf8"/>
<path transform="matrix(.42584888,0,0,.42584888,7.2000005,223.59827)" d="M816 217H918V239H816V217Z" fill="#c9daf8"/>
<path transform="matrix(.42584888,0,0,.42584888,7.2000005,223.59827)" d="M100 238H1726V262H100V238Z" fill="#b6d7a8"/>
<path transform="matrix(.42584888,0,0,.42584888,7.2000005,223.59827)" d="M917 261H1221V283H917V261Z" fill="#d9ead3"/>
<path transform="matrix(.42584888,0,0,.42584888,7.2000005,223.59827)" d="M1119 282H1221V304H1119V282Z" fill="#d9ead3"/>
<path transform="matrix(.42584888,0,0,.42584888,7.2000005,223.59827)" d="M1220 303H1423V325H1220V303Z" fill="#d9ead3"/>
<path transform="matrix(.42584888,0,0,.42584888,7.2000005,223.59827)" d="M1422 324H1625V346H1422V324Z" fill="#d9d9d9"/>
<path transform="matrix(.42584888,0,0,.42584888,7.2000005,223.59827)" stroke-width="1" stroke-linecap="butt" stroke-miterlimit="10" stroke-linejoin="miter" fill="none" stroke="#000000" d="M100.5 41V346M311.5 41V88M311.5 110V153M311.5 175V239M311.5 261V346M412.5 110V153M412.5 175V239M412.5 261V346M513.5 64V88M513.5 110V153M513.5 175V239M513.5 261V346M614.5 110V153M614.5 175V239M614.5 261V346M715.5 64V88M715.5 110V153M715.5 175V239M715.5 261V346M816.5 41V65M816.5 110V153M816.5 175V239M816.5 261V346M917.5 64V88M917.5 110V153M917.5 175V239M917.5 261V346M1018.5 41V65M1018.5 110V153M1018.5 175V239M1018.5 261V346M1119.5 64V88M1119.5 110V153M1119.5 175V239M1119.5 261V346M1220.5 110V153M1220.5 175V239M1220.5 261V346M1321.5 64V88M1321.5 110V153M1321.5 175V239M1321.5 261V346M1422.5 110V153M1422.5 175V239M1422.5 261V346M1523.5 64V88M1523.5 110V153M1523.5 175V239M1523.5 261V346M1624.5 110V153M1624.5 175V239M1624.5 261V346M100 41.5H1726M311 64.5H1726M100 87.5H1726M100 345.5H1726M1725.5 41V346"/>
<path transform="matrix(.42584888,0,0,.42584888,7.2000005,223.59827)" stroke-width="1" stroke-linecap="butt" stroke-miterlimit="10" stroke-linejoin="miter" fill="none" stroke="#cccccc" d="M101 131.5H311M101 152.5H311M101 196.5H311M101 217.5H311M101 238.5H311M101 282.5H311M101 303.5H311M101 324.5H311M312 131.5H412M312 152.5H412M312 196.5H412M312 217.5H412M312 238.5H412M312 282.5H412M312 303.5H412M312 324.5H412M413 131.5H513M413 152.5H513M413 196.5H513M413 217.5H513M413 238.5H513M413 282.5H513M413 303.5H513M413 324.5H513M514 131.5H614M514 152.5H614M514 196.5H614M514 217.5H614M514 238.5H614M514 282.5H614M514 303.5H614M514 324.5H614M615 131.5H715M615 152.5H715M615 196.5H715M615 217.5H715M615 238.5H715M615 282.5H715M615 303.5H715M615 324.5H715M716 131.5H816M716 152.5H816M716 196.5H816M716 217.5H816M716 238.5H816M716 282.5H816M716 303.5H816M716 324.5H816M817 131.5H917M817 152.5H917M817 196.5H917M817 217.5H917M817 238.5H917M817 282.5H917M817 303.5H917M817 324.5H917M918 131.5H1018M918 152.5H1018M918 196.5H1018M918 217.5H1018M918 238.5H1018M918 282.5H1018M918 303.5H1018M918 324.5H1018M1019 131.5H1119M1019 152.5H1119M1019 196.5H1119M1019 217.5H1119M1019 238.5H1119M1019 282.5H1119M1019 303.5H1119M1019 324.5H1119M1120 131.5H1220M1120 152.5H1220M1120 196.5H1220M1120 217.5H1220M1120 238.5H1220M1120 282.5H1220M1120 303.5H1220M1120 324.5H1220M1221 131.5H1321M1221 152.5H1321M1221 196.5H1321M1221 217.5H1321M1221 238.5H1321M1221 282.5H1321M1221 303.5H1321M1221 324.5H1321M1322 131.5H1422M1322 152.5H1422M1322 196.5H1422M1322 217.5H1422M1322 238.5H1422M1322 282.5H1422M1322 303.5H1422M1322 324.5H1422M1423 131.5H1523M1423 152.5H1523M1423 196.5H1523M1423 217.5H1523M1423 238.5H1523M1423 282.5H1523M1423 303.5H1523M1423 324.5H1523M1524 131.5H1624M1524 152.5H1624M1524 196.5H1624M1524 217.5H1624M1524 238.5H1624M1524 282.5H1624M1524 303.5H1624M1524 324.5H1624M1625 131.5H1725M1625 152.5H1725M1625 196.5H1725M1625 217.5H1725M1625 238.5H1725M1625 282.5H1725M1625 303.5H1725M1625 324.5H1725"/>
<text xml:space="preserve" transform="matrix(.42584888 0 0 .42584888 7.2000005 223.59827)" font-size="18.199999" font-family="Arial" font-weight="bold"><tspan y="81.14581" x="151 163.1212 174.2232 184.3424 194.46161 204.58081 209.62221 219.37741 229.49662 239.61582 249.73502">Phase/Tasks</tspan></text>
<path transform="matrix(.42584888,0,0,.42584888,7.2000005,223.59827)" stroke-width="1.9106444" stroke-linecap="butt" stroke-miterlimit="10" stroke-linejoin="miter" fill="none" stroke="#000000" d="M151 83.074237H259.85768"/>
<text xml:space="preserve" transform="matrix(.42584888 0 0 .42584888 7.2000005 223.59827)" font-size="15.599999" font-family="Arial" font-weight="bold" font-style="italic"><tspan y="58.695466" x="513 522.516 531.1896 535.5108 539.83206 544.15328 554.54287 563.21646 577.08486 585.7584 594.432 599.62686 608.3004">Fall Semester</tspan></text>
<text xml:space="preserve" transform="matrix(.42584888 0 0 .42584888 7.2000005 223.59827)" font-size="15.599999" font-family="Arial" font-weight="bold" font-style="italic"><tspan y="58.695466" x="869 883.586 887.9072 897.4232 902.61807 911.2916 917.36007 921.6813 932.94448 939.0129 947.68649 956.36007">Winter Break</tspan></text>
<text xml:space="preserve" transform="matrix(.42584888 0 0 .42584888 7.2000005 223.59827)" font-size="15.599999" font-family="Arial" font-weight="bold" font-style="italic"><tspan y="58.695466" x="1310 1320.3897 1329.9057 1335.974 1340.2952 1349.8112 1359.3272 1363.6483 1374.038 1382.7116 1396.58 1405.2536 1413.9271 1419.122 1427.7955">Spring Semester</tspan></text>
<text xml:space="preserve" transform="matrix(.42584888 0 0 .42584888 7.2000005 223.59827)" font-size="15.599999" font-family="Arial" font-weight="bold"><tspan y="81.695468" x="382 394.1212 402.7948 407.9896 417.50559 427.02159 435.6952">October</tspan></text>
<text xml:space="preserve" transform="matrix(.42584888 0 0 .42584888 7.2000005 223.59827)" font-size="15.599999" font-family="Arial" font-weight="bold"><tspan y="81.695468" x="576 587.2632 596.7792 605.45278 614.12637 627.99478 637.51077 646.1843">November</tspan></text>
<text xml:space="preserve" transform="matrix(.42584888 0 0 .42584888 7.2000005 223.59827)" font-size="15.599999" font-family="Arial" font-weight="bold"><tspan y="81.695468" x="778 789.2632 797.93679 806.61038 815.28396 829.15237 838.66836 847.3419">December</tspan></text>
<text xml:space="preserve" transform="matrix(.42584888 0 0 .42584888 7.2000005 223.59827)" font-size="15.599999" font-family="Arial" font-weight="bold"><tspan y="81.695468" x="988 996.6736 1005.34719 1014.86318 1024.3792 1033.0527 1039.1211">January</tspan></text>
<text xml:space="preserve" transform="matrix(.42584888 0 0 .42584888 7.2000005 223.59827)" font-size="15.599999" font-family="Arial" font-weight="bold"><tspan y="81.695468" x="1187 1196.516 1205.1896 1214.7056 1220.7739 1230.2899 1238.9635 1245.0319">February</tspan></text>
<text xml:space="preserve" transform="matrix(.42584888 0 0 .42584888 7.2000005 223.59827)" font-size="15.599999" font-family="Arial" font-weight="bold"><tspan y="81.695468" x="1399 1411.9948 1420.6683 1426.7367 1435.4103">March</tspan></text>
<text xml:space="preserve" transform="matrix(.42584888 0 0 .42584888 7.2000005 223.59827)" font-size="15.599999" font-family="Arial" font-weight="bold"><tspan y="81.695468" x="1606 1617.2632 1626.7792 1632.8475 1637.1687">April</tspan></text>
<text xml:space="preserve" transform="matrix(.42584888 0 0 .42584888 7.2000005 223.59827)" font-size="15.599999" font-family="ArialMT"><tspan y="104.695468" x="104 114.3896 123.0632 131.7368 139.5368 148.2104 152.5316 161.2052 165.5264 169.8476 182.84239 191.51599 200.18959 208.86319 212.32639 216.64759 227.03719 235.71079 239.17398 247.84758 255.64759 259.96879 263.43199 272.1056">Phase 1: Model Selection</tspan></text>
<text xml:space="preserve" transform="matrix(.42584888 0 0 .42584888 7.2000005 223.59827)" font-size="13" font-family="ArialMT"><tspan y="126.24512" x="104 111.228 114.114 117.715 124.94299 129.27199 136.49999 140.10099 147.32898 151.65798 158.88597 162.48697 171.87297 179.10097 185.60097 188.48697 195.71497">Literature Review</tspan></text>
<text xml:space="preserve" transform="matrix(.42584888 0 0 .42584888 7.2000005 223.59827)" font-size="13" font-family="ArialMT"><tspan y="147.24512" x="104 114.829 122.05701 129.285 136.513 139.399 143 151.658 158.886 161.772 169 175.5 179.101 186.329">Model Selected</tspan></text>
<text xml:space="preserve" transform="matrix(.42584888 0 0 .42584888 7.2000005 223.59827)" font-size="15.599999" font-family="ArialMT"><tspan y="169.69547" x="104 114.3896 123.0632 131.7368 139.5368 148.2104 152.5316 161.2052 165.5264 169.8476 182.84239 191.51599 200.18959 208.86319 212.32639 216.64759 227.91078 236.58438 240.04758 243.51078 252.18437 257.37919 266.0528 270.374 273.8372 282.5108">Phase 2: Model Calibration</tspan></text>
<text xml:space="preserve" transform="matrix(.42584888 0 0 .42584888 7.2000005 223.59827)" font-size="13" font-family="ArialMT"><tspan y="191.24512" x="104 111.93 119.158008 123.48701 134.31601 141.544 144.43001 151.658 155.259 162.487 166.088 173.316 179.816 187.04399 194.27199 205.10099 207.98699 214.48699 221.71498 224.60099 228.20198 231.80298 239.03098 243.35997 254.18897">Formulate dynamical terms</tspan></text>
<text xml:space="preserve" transform="matrix(.42584888 0 0 .42584888 7.2000005 223.59827)" font-size="13" font-family="ArialMT"><tspan y="212.24512" x="104 113.386 120.614 127.841999 131.443 138.67099 145.17099 148.77199 155.99999 163.22798 166.82898 169.71498 176.94298 184.17098 187.77198 191.37297 198.60097 205.10097 208.70197 215.20197 218.80297 226.03096 233.25896 236.85996 241.18895 248.41695 255.64495 262.87297">Run actuation tests on robot</tspan></text>
<text xml:space="preserve" transform="matrix(.42584888 0 0 .42584888 7.2000005 223.59827)" font-size="13" font-family="ArialMT"><tspan y="233.24512" x="104 113.386 120.614 123.5 126.386 133.614 137.943 145.17099 148.77199 155.99999 159.60099 170.42998 177.65798 184.88597 192.11397 194.99997 198.60097 205.82897 213.05696 219.55696 226.78496 234.01296 237.61396 244.84195 252.06995 255.67095 259.99995 267.22795 273.72795 280.95594 283.84193 287.44294">Calibrate model based on results</tspan></text>
<text xml:space="preserve" transform="matrix(.42584888 0 0 .42584888 7.2000005 223.59827)" font-size="15.599999" font-family="ArialMT"><tspan y="255.69547" x="104 114.3896 123.0632 131.7368 139.5368 148.2104 152.5316 161.2052 165.5264 169.8476 181.1108 189.7844 198.458 202.77919 207.97399 216.64759 220.11078 223.57398 232.24758 237.44237 241.76357 246.08477 259.07957 267.75318 271.21638 279.88999 292.8848 301.5584 310.23204 314.55323 323.22685 327.54804 331.01124 339.68486">Phase 3: Controller Implementation</tspan></text>
<text xml:space="preserve" transform="matrix(.42584888 0 0 .42584888 7.2000005 223.59827)" font-size="13" font-family="ArialMT"><tspan y="277.24513" x="104 111.93 119.158008 123.48701 134.31601 141.544 144.43001 151.658 155.259 162.487 166.088 172.588 179.816 187.04399 190.64499 194.97399 202.20198 205.08798 207.97399 215.20198">Formulate controller</tspan></text>
<text xml:space="preserve" transform="matrix(.42584888 0 0 .42584888 7.2000005 223.59827)" font-size="13" font-family="ArialMT"><tspan y="298.24513" x="104 107.601 118.43 125.658008 128.544 135.772 146.601 153.829 161.05699 164.65799 168.25899 174.75899 181.98699 189.21498 192.81598 197.14498 204.37297 207.25897 210.14498 217.37297 221.70197 225.30297 228.18897 235.41696 239.01796 245.51796 248.40396 259.23298 266.46098 269.34696 276.57496 280.17597 283.06196 290.28996">Implement controller in simulation</tspan></text>
<text xml:space="preserve" transform="matrix(.42584888 0 0 .42584888 7.2000005 223.59827)" font-size="13" font-family="ArialMT"><tspan y="319.24513" x="104 113.386 120.614 124.943 132.171 141.557 148.785 153.114 160.342 163.943 166.829 177.65799 184.88599 187.77199 194.99999 205.82898 213.05698 220.28498 223.88597 231.11397 234.71497 237.60097 244.82897">Hardware implementation</tspan></text>
<text xml:space="preserve" transform="matrix(.42584888 0 0 .42584888 7.2000005 223.59827)" font-size="13" font-family="ArialMT"><tspan y="340.24513" x="1426 1434.658 1441.886 1445.2529 1448.8539 1456.0819 1460.4109 1464.0119 1472.6698 1479.8978 1487.1259 1493.6259">Buffer Space</tspan></text>
</g>
</g>
</svg>
